<svg width="36" height="36" viewBox="0 0 36 36" fill="none" xmlns="http://www.w3.org/2000/svg">
<rect width="36" height="36" rx="8" fill="#F2F1FA"/>
<path fill-rule="evenodd" clip-rule="evenodd" d="M9 18C9 14.4049 9 12.6073 9.85669 11.3126C10.2392 10.7344 10.7344 10.2392 11.3126 9.85669C12.6073 9 14.4049 9 18 9C21.5951 9 23.3927 9 24.6874 9.85669C25.2656 10.2392 25.7608 10.7344 26.1433 11.3126C27 12.6073 27 14.4049 27 18C27 21.5951 27 23.3927 26.1433 24.6874C25.7608 25.2656 25.2656 25.7608 24.6874 26.1433C23.3927 27 21.5951 27 18 27C14.4049 27 12.6073 27 11.3126 26.1433C10.7344 25.7608 10.2392 25.2656 9.85669 24.6874C9 23.3927 9 21.5951 9 18ZM22.6596 18.0003C22.6596 20.5736 20.5735 22.6597 18.0002 22.6597C15.4269 22.6597 13.3408 20.5736 13.3408 18.0003C13.3408 15.427 15.4269 13.3409 18.0002 13.3409C20.5735 13.3409 22.6596 15.427 22.6596 18.0003ZM18.0002 21.0833C19.7029 21.0833 21.0832 19.703 21.0832 18.0003C21.0832 16.2976 19.7029 14.9173 18.0002 14.9173C16.2975 14.9173 14.9172 16.2976 14.9172 18.0003C14.9172 19.703 16.2975 21.0833 18.0002 21.0833ZM22.8436 14.2016C23.4483 14.2016 23.9385 13.7114 23.9385 13.1068C23.9385 12.5021 23.4483 12.012 22.8436 12.012C22.239 12.012 21.7488 12.5021 21.7488 13.1068C21.7488 13.7114 22.239 14.2016 22.8436 14.2016Z" fill="#8D8BA7"/>
</svg>
