<svg width="135" height="118" viewBox="0 0 135 118" fill="none" xmlns="http://www.w3.org/2000/svg">
<path d="M8.65685 0H49.635C50.5199 0 51.3799 0.293465 52.0802 0.834445L132.945 63.299C133.926 64.0565 134.5 65.2255 134.5 66.4646V111.463C134.5 112.743 133.888 113.945 132.853 114.698L129 117.5V109L7.55692 7.46562C7.19712 7.16481 6.74306 7 6.27408 7H0L5.82843 1.17157C6.57857 0.421427 7.59599 0 8.65685 0Z" fill="#EA2A2A"/>
<path d="M6 0.999297L0 7L6 6.9993L8 0.0507812L7.17885 0.256133C7.06061 0.285701 6.94878 0.336636 6.84886 0.406424L6 0.999297Z" fill="#C90000"/>
<path d="M129 109V117.5L133.03 114.552C133.076 114.517 133.12 114.479 133.16 114.437L133.58 114L133.889 113.632C133.963 113.545 134.02 113.445 134.06 113.339L134.28 112.75L134.453 112.131C134.478 112.044 134.49 111.954 134.49 111.864L134.5 107L129 109Z" fill="#C90000"/>
<path d="M50.1455 28.8359L57.6923 19.1309L61.3441 21.9706C62.1493 22.5967 62.7288 23.2297 63.0825 23.8696C63.4435 24.5 63.5652 25.1646 63.4474 25.8634C63.339 26.5697 62.9644 27.3349 62.3236 28.159C61.6827 28.9831 61.0223 29.5489 60.3425 29.8563C59.6794 30.1616 58.9869 30.2311 58.2649 30.0649C57.5503 29.8892 56.7903 29.4883 55.9851 28.8622L54.2942 27.5473L52.1064 30.3608L50.1455 28.8359ZM55.5428 25.9416L57.1769 27.2123C57.7737 27.6764 58.3215 27.8516 58.8204 27.7378C59.3266 27.6147 59.8228 27.2404 60.309 26.6152C60.8099 25.9711 61.0393 25.4122 60.9971 24.9386C60.955 24.465 60.6355 23.9961 60.0387 23.532L58.4046 22.2614L55.5428 25.9416Z" fill="white"/>
<path d="M61.6451 38.029C60.8399 37.4028 60.2941 36.7656 60.0078 36.1173C59.7309 35.4764 59.6972 34.7965 59.9065 34.0777C60.1233 33.3493 60.5742 32.5447 61.2592 31.6637C61.9222 30.8111 62.5736 30.208 63.2135 29.8543C63.8607 29.4911 64.5301 29.3732 65.2216 29.5005C65.9204 29.6183 66.6582 29.9792 67.435 30.5832C68.2213 31.1946 68.7528 31.8208 69.0297 32.4617C69.3234 33.1005 69.374 33.7783 69.1815 34.4951C69.0058 35.2097 68.5864 35.9933 67.9235 36.8459C67.2384 37.7269 66.5696 38.3621 65.9171 38.7516C65.272 39.1316 64.6 39.2627 63.9012 39.1449C63.2118 39.0345 62.4598 38.6625 61.6451 38.029ZM62.8605 36.4659C63.2584 36.7753 63.612 36.9363 63.9215 36.9489C64.2383 36.952 64.555 36.8183 64.8718 36.5478C65.2054 36.2752 65.5785 35.8736 65.991 35.3432C66.3961 34.8221 66.6739 34.3769 66.8244 34.0075C66.9822 33.6286 67.0133 33.2955 66.9174 33.0082C66.8216 32.7208 66.589 32.4335 66.2196 32.1463C65.8596 31.8663 65.5238 31.7117 65.2123 31.6822C64.9102 31.6602 64.595 31.7723 64.2667 32.0186C63.9457 32.2554 63.5827 32.6344 63.1775 33.1554C62.765 33.6859 62.463 34.1427 62.2715 34.5258C62.0968 34.9068 62.05 35.2504 62.1311 35.5567C62.2195 35.8535 62.4627 36.1566 62.8605 36.4659Z" fill="white"/>
<path d="M64.3515 44.6939L72.2298 34.5626L74.1055 36.0211L73.7661 36.4868C73.965 36.5047 74.2008 36.5436 74.4734 36.6036C74.7554 36.6709 75.0407 36.7635 75.3291 36.8814C75.6175 36.9992 75.8753 37.1465 76.1027 37.3233C76.7374 37.8169 77.1421 38.352 77.3169 38.9287C77.5085 39.5034 77.4806 40.1354 77.2334 40.8248C77.003 41.5121 76.5636 42.2725 75.9154 43.1061C75.223 43.9966 74.5589 44.6355 73.9233 45.0229C73.2876 45.4103 72.6383 45.5514 71.9752 45.4462C71.3216 45.3484 70.6206 45.0085 69.8722 44.4265C69.6354 44.2424 69.3944 44.0246 69.1491 43.773C68.9039 43.5215 68.7155 43.3142 68.5839 43.1511L66.2414 46.1635L64.3515 44.6939ZM70.8003 42.6173C71.1793 42.9119 71.5403 43.0634 71.8834 43.0718C72.2265 43.0802 72.5659 42.9565 72.9016 42.7007C73.2542 42.4428 73.6256 42.0628 74.0161 41.5608C74.6201 40.784 74.9274 40.1641 74.9378 39.701C74.9651 39.2358 74.7799 38.8485 74.382 38.5391C74.2304 38.4212 74.0547 38.315 73.8547 38.2203C73.6547 38.1256 73.4521 38.044 73.2469 37.9756C73.0416 37.9072 72.8648 37.8609 72.7164 37.8367L69.7551 41.6449C69.8615 41.7428 70.0078 41.8869 70.1941 42.0774C70.3898 42.2752 70.5919 42.4552 70.8003 42.6173Z" fill="white"/>
<path d="M76.8483 49.8512C76.2326 49.3724 75.8536 48.8725 75.7115 48.3516C75.5862 47.8285 75.6588 47.2465 75.9292 46.6055C76.2091 45.9719 76.6621 45.2525 77.2882 44.4473L80.1721 40.7386L82.062 42.2082L79.2444 45.8316C78.854 46.3337 78.5683 46.75 78.3873 47.0805C78.2158 47.4183 78.1626 47.7114 78.2279 47.9598C78.2932 48.2082 78.4774 48.4502 78.7805 48.686C79.0742 48.9143 79.3784 49.09 79.6931 49.2132C80.0078 49.3363 80.2704 49.4189 80.4809 49.4609L84.5913 44.175L86.4811 45.6446L80.9343 52.7777L79.0587 51.3192L79.4012 50.8787C78.9391 50.8083 78.5029 50.7046 78.0924 50.5678C77.6988 50.429 77.2841 50.1901 76.8483 49.8512Z" fill="white"/>
<path d="M82.8359 54.2565L90.6479 44.2104L92.5378 45.68L84.7258 55.7261L82.8359 54.2565Z" fill="white"/>
<path d="M88.3694 58.8102C87.6305 58.2356 87.2153 57.6163 87.1236 56.9522C87.0488 56.286 87.3061 55.574 87.8954 54.8161C88.3079 54.2857 88.7231 53.9472 89.1409 53.8009C89.5661 53.6451 90.015 53.6445 90.4875 53.7992C90.9769 53.9518 91.5027 54.2238 92.0647 54.6152L93.9198 55.807L94.2513 55.3807C94.5165 55.0396 94.6154 54.7365 94.548 54.4713C94.488 54.1966 94.2922 53.9304 93.9607 53.6725C93.6954 53.4663 93.3802 53.2364 93.015 52.9827C92.6592 52.7365 92.2997 52.495 91.9366 52.2582C91.583 52.0288 91.2719 51.8326 91.0036 51.6695L91.9854 50.2896C92.2759 50.4243 92.6137 50.5958 92.9989 50.8041C93.401 51.0104 93.8062 51.2419 94.2146 51.4986C94.623 51.7554 94.9882 52.009 95.3103 52.2595C95.9166 52.7309 96.3645 53.2008 96.6539 53.6691C96.9434 54.1374 97.0561 54.6279 96.9919 55.1404C96.9351 55.6435 96.6784 56.1887 96.2217 56.7761L93.6914 60.03C93.6072 60.1774 93.5972 60.3368 93.6614 60.5084C93.733 60.6704 93.8383 60.8283 93.9772 60.9819L92.918 62.2561C92.7664 62.1382 92.6149 62.0203 92.4633 61.9025C92.3138 61.8015 92.1765 61.6947 92.0512 61.5821C91.9186 61.4789 91.8076 61.3774 91.7181 61.2774C91.5223 61.0795 91.3771 60.8754 91.2823 60.6649C91.197 60.4618 91.1439 60.276 91.1228 60.1076C90.9197 60.0561 90.6571 59.9735 90.335 59.8599C90.0129 59.7462 89.6782 59.6 89.3309 59.4211C88.993 59.2496 88.6726 59.0459 88.3694 58.8102ZM89.918 57.7571C90.098 57.897 90.3022 58.0254 90.5306 58.1422C90.759 58.259 90.9769 58.36 91.1842 58.4453C91.4084 58.5284 91.591 58.5868 91.732 58.6204L93.0027 56.9863L91.4539 55.9872C91.1192 55.7725 90.8182 55.6905 90.5509 55.741C90.3004 55.7894 90.0647 55.9557 89.8437 56.2399C89.6227 56.5241 89.5111 56.7946 89.5091 57.0514C89.5165 57.3156 89.6528 57.5508 89.918 57.7571Z" fill="white"/>
<path d="M94.3515 63.2111L99.8983 56.078L101.788 57.5476L101.136 58.3859C101.393 58.388 101.691 58.4148 102.031 58.4664C102.379 58.5084 102.734 58.5794 103.097 58.6794C103.477 58.7772 103.81 58.9066 104.095 59.0676L102.669 60.9007C102.394 60.747 102.082 60.6108 101.733 60.4919C101.392 60.3635 101.058 60.2556 100.731 60.1683C100.413 60.0884 100.136 60.0247 99.8987 59.9774L96.2413 64.6807L94.3515 63.2111Z" fill="white"/>
</svg>
